<svg xmlns="http://www.w3.org/2000/svg" viewBox="0 0 2450.96 2658.63"><defs><style>.cls-1{fill:#fff;}.cls-2{fill:#e10c4b;}</style></defs><title>kanji-text-whiteAsset 2</title><g id="Layer_2" data-name="Layer 2"><g id="Layer_10" data-name="Layer 10"><path class="cls-1" d="M0,2397.77V2184.28a22.42,22.42,0,0,1,44.83,0v213.49c0,119.12,96.91,216,216,216s216-96.91,216-216V2184.28a22.42,22.42,0,0,1,44.83,0v213.49c0,144-116.86,260.86-260.85,260.86S0,2541.77,0,2397.77Z"/><path class="cls-1" d="M941.67,2635.43a22.43,22.43,0,0,1-22.42,22.42,26.16,26.16,0,0,1-13.53-4.55l-259.93-197v179.12a22.42,22.42,0,1,1-44.83,0V1831.76a22.42,22.42,0,0,1,44.83,0v534.3l259.93-196.95a26.16,26.16,0,0,1,13.53-4.55A22.42,22.42,0,0,1,941.67,2187c0,6.15-4,14.15-8.88,17.87L660.45,2411.2l272.34,206.37C937.69,2621.28,941.67,2629.28,941.67,2635.43Z"/><path class="cls-1" d="M1398.7,2582.88c0,5.89-3.71,13.68-8.27,17.39-37.39,30.39-106.84,55.05-155,55.05-135.68,0-245.79-110.12-245.79-245.79s110.11-245.8,245.79-245.8c48.18,0,117.63,24.66,155,55.05,4.56,3.71,8.27,11.5,8.27,17.39,0,5.36-3.17,12.68-7.08,16.35l-238.25,223.84a25.77,25.77,0,0,1-15.66,6.38,22.42,22.42,0,0,1-22.41-22.41c0-5.5,3.31-12.95,7.39-16.64L1341,2238.59c-26.8-16.52-74.11-30-105.6-30-110.81,0-201,90.16-201,201s90.15,201,201,201c39.38,0,96.15-20.17,126.73-45a26.09,26.09,0,0,1,14.17-5.05c5.87,0,13.65,3.7,17.37,8.25A26.06,26.06,0,0,1,1398.7,2582.88Z"/><path class="cls-1" d="M2312.49,2380.63v255.53a22.42,22.42,0,0,1-44.83,0V2380.63c0-96.72-78.68-175.4-175.4-175.4s-175.39,78.68-175.39,175.4v255.53a22.42,22.42,0,0,1-44.83,0V2380.63c0-96.72-78.68-175.4-175.4-175.4s-175.4,78.68-175.4,175.4v255.53a22.42,22.42,0,0,1-44.83,0V2380.63c0-121.4,98.79-220.2,220.19-220.2,86.74,0,162,50.41,197.82,123.47,35.87-73,111.06-123.47,197.81-123.47C2213.7,2160.43,2312.49,2259.23,2312.49,2380.63Z"/><path class="cls-1" d="M2451,2185.15V2635a22.42,22.42,0,0,1-44.83,0V2185.15a22.42,22.42,0,1,1,44.83,0Z"/></g><g id="Layer_9" data-name="Layer 9"><path class="cls-1" d="M95.26,1624.38a24.49,24.49,0,0,1,2.58-32.54c91.14-86.89,116.55-138.16,115-220.91-.17-27.13,4.06-44,17-53.84,8.64-6.57,578.73-238.7,978.64-259.69,100.72-353.65,343.75-713.28,652.08-1042a48.64,48.64,0,0,1,65.91-4.71h0c-277.36,343.72-509,707.23-598,1047.59,219.36,10.55,446.75,90,683.73,226.89,80-60.76,101.56-77.18,151.08-142.08l134.66,6.74c-61.63,40-104.84,72.86-148.06,105.7l-767.07,582.94-113.54,72.22-107.68,43a72.44,72.44,0,0,1-38.89,4.34c-8.12-1.37-13.06-3.61-14.91-6-4.93-6.48.43-17.37,17.12-40.27,50-68.72,56.44-87.21,45.72-235.87-19.44-240.87-21.76-351.59,8.23-500.51-375.36,39.84-729.21,220.12-1075.62,459.51ZM1962.5,1322.93c-229.2-108.73-459.1-155.58-658.32-157.58-37.26,202.16-27.41,385.56,29.54,635.43Z"/><g id="Layer_2_copy_2" data-name="Layer 2 copy 2"><circle class="cls-2" cx="1450.76" cy="1340.13" r="60.35"/></g></g></g></svg>