<svg xmlns="http://www.w3.org/2000/svg" viewBox="0 0 3000 3000"><defs><style>.cls-1{fill:#fff;}.cls-2{fill:#e10c4b;}</style></defs><title>kanji-i-whiteukemi-text-logo</title><g id="Layer_10" data-name="Layer 10"><path class="cls-1" d="M38.17,2675.79v-213.5a22.42,22.42,0,0,1,44.83,0v213.5c0,119.11,96.91,216,216,216s216-96.91,216-216v-213.5a22.42,22.42,0,0,1,44.83,0v213.5c0,144-116.86,260.85-260.86,260.85S38.17,2819.78,38.17,2675.79Z"/><path class="cls-1" d="M979.84,2913.44a22.43,22.43,0,0,1-22.42,22.42,26.19,26.19,0,0,1-13.54-4.55L684,2734.32v179.12a22.42,22.42,0,1,1-44.83,0V2109.77a22.42,22.42,0,0,1,44.83,0v534.3l259.92-197a26.19,26.19,0,0,1,13.54-4.55A22.43,22.43,0,0,1,979.84,2465c0,6.15-4,14.16-8.88,17.87L698.62,2689.21,971,2895.58C975.86,2899.29,979.84,2907.29,979.84,2913.44Z"/><path class="cls-1" d="M1436.86,2860.9c0,5.88-3.7,13.67-8.27,17.38-37.39,30.39-106.83,55-155,55-135.68,0-245.8-110.12-245.8-245.79s110.12-245.79,245.8-245.79c48.18,0,117.62,24.66,155,55,4.57,3.72,8.28,11.51,8.28,17.39,0,5.36-3.17,12.68-7.08,16.35l-238.25,223.84a25.73,25.73,0,0,1-15.66,6.39,22.43,22.43,0,0,1-22.42-22.42c0-5.5,3.31-13,7.39-16.64l218.33-205.09c-26.81-16.52-74.11-30-105.6-30-110.81,0-201,90.15-201,201s90.15,200.95,201,200.95c39.37,0,96.15-20.17,126.72-45a26.13,26.13,0,0,1,14.18-5c5.87,0,13.65,3.69,17.36,8.24A26.06,26.06,0,0,1,1436.86,2860.9Z"/><path class="cls-1" d="M2350.66,2658.64v255.53a22.42,22.42,0,1,1-44.83,0V2658.64c0-96.72-78.68-175.4-175.4-175.4s-175.4,78.68-175.4,175.4v255.53a22.42,22.42,0,1,1-44.83,0V2658.64c0-96.72-78.67-175.4-175.39-175.4s-175.4,78.68-175.4,175.4v255.53a22.42,22.42,0,1,1-44.83,0V2658.64c0-121.4,98.79-220.19,220.19-220.19,86.74,0,162,50.41,197.81,123.46,35.88-73,111.07-123.46,197.82-123.46C2251.86,2438.45,2350.66,2537.24,2350.66,2658.64Z"/><path class="cls-1" d="M2489.13,2463.16v449.89a22.42,22.42,0,1,1-44.83,0V2463.16a22.42,22.42,0,1,1,44.83,0Z"/></g><g id="Layer_9" data-name="Layer 9"><path class="cls-1" d="M2010.61,2335.66a8,8,0,0,1,.53-10.65c28.9-29.27,36.7-46.26,35.38-73.26-.32-8.86.89-14.4,5-17.75,2.76-2.23,186.62-83.62,317-94.4,29.42-116.46,105.24-236.27,202.69-346.63a15.89,15.89,0,0,1,21.48-2.18h0c-87.19,115-159.26,235.92-185,347.92,71.73,1.29,146.76,25,225.48,67.38,25.51-20.63,32.4-26.2,47.93-47.88l44,.88c-19.73,13.67-33.52,24.82-47.31,36l-244.74,197.86-36.36,24.7L2362,2432.73a23.71,23.71,0,0,1-12.66,1.8c-2.66-.37-4.3-1.05-4.92-1.83-1.67-2.07,0-5.67,5.19-13.32,15.67-22.92,17.57-29,12.62-77.46-8.71-78.46-10.56-114.59-2.23-163.5-122.17,16.69-235.94,79-346.7,160.59ZM2331.44,2490m285.9-271c-75.9-33.26-151.43-46.3-216.5-45-10.18,66.38-5.16,126.16,15.88,207.19Z"/><g id="Layer_2_copy_2" data-name="Layer 2 copy 2"><circle class="cls-2" cx="2467.7" cy="2243.4" r="22.86"/></g></g></svg>