<svg xmlns="http://www.w3.org/2000/svg" viewBox="0 0 2450.96 1899.63"><defs><style>.cls-1{fill:#fff;}.cls-2{fill:#e10c4b;}</style></defs><title>kanji-text-whiteAsset 2</title><g id="Layer_2" data-name="Layer 2"><g id="Layer_10" data-name="Layer 10"><path class="cls-1" d="M0,1638.77V1425.28a22.42,22.42,0,0,1,44.83,0v213.49c0,119.12,96.91,216,216,216s216-96.91,216-216V1425.28a22.42,22.42,0,0,1,44.83,0v213.49c0,144-116.86,260.86-260.85,260.86S0,1782.77,0,1638.77Z"/><path class="cls-1" d="M941.67,1876.43a22.43,22.43,0,0,1-22.42,22.42,26.16,26.16,0,0,1-13.53-4.55l-259.93-197v179.12a22.42,22.42,0,1,1-44.83,0V1072.76a22.42,22.42,0,0,1,44.83,0v534.3l259.93-197a26.16,26.16,0,0,1,13.53-4.55A22.42,22.42,0,0,1,941.67,1428c0,6.15-4,14.15-8.88,17.87L660.45,1652.2l272.34,206.37C937.69,1862.28,941.67,1870.28,941.67,1876.43Z"/><path class="cls-1" d="M1398.7,1823.88c0,5.89-3.71,13.68-8.27,17.39-37.39,30.39-106.84,55-155,55-135.68,0-245.79-110.12-245.79-245.79s110.11-245.8,245.79-245.8c48.18,0,117.63,24.66,155,55,4.56,3.71,8.27,11.5,8.27,17.39,0,5.36-3.17,12.68-7.08,16.35l-238.25,223.84a25.77,25.77,0,0,1-15.66,6.38,22.42,22.42,0,0,1-22.41-22.41c0-5.5,3.31-12.95,7.39-16.64L1341,1479.59c-26.8-16.52-74.11-29.95-105.6-30-110.81,0-201,90.16-201,201s90.15,201,201,201c39.38,0,96.15-20.17,126.73-45a26.09,26.09,0,0,1,14.17-5c5.87,0,13.65,3.7,17.37,8.25A26.06,26.06,0,0,1,1398.7,1823.88Z"/><path class="cls-1" d="M2312.49,1621.63v255.53a22.42,22.42,0,0,1-44.83,0V1621.63c0-96.72-78.68-175.4-175.4-175.4s-175.39,78.68-175.39,175.4v255.53a22.42,22.42,0,0,1-44.83,0V1621.63c0-96.72-78.68-175.4-175.4-175.4s-175.4,78.68-175.4,175.4v255.53a22.42,22.42,0,0,1-44.83,0V1621.63c0-121.4,98.79-220.2,220.19-220.2,86.74,0,162,50.41,197.82,123.47,35.87-73,111.06-123.47,197.81-123.47C2213.7,1401.43,2312.49,1500.23,2312.49,1621.63Z"/><path class="cls-1" d="M2451,1426.15V1876a22.42,22.42,0,0,1-44.83,0V1426.15a22.42,22.42,0,1,1,44.83,0Z"/></g><g id="Layer_9" data-name="Layer 9"><path class="cls-1" d="M480.07,1043.7a15.74,15.74,0,0,1,1.66-20.91C540.29,967,556.62,934,555.62,880.85c-.11-17.43,2.61-28.26,10.94-34.59,5.55-4.22,371.85-153.37,628.8-166.86,64.71-227.22,220.86-458.3,419-669.51a31.26,31.26,0,0,1,42.35-3h0c-178.21,220.85-327,454.42-384.24,673.1,140.94,6.78,287,57.82,439.31,145.78,51.37-39,65.25-49.58,97.07-91.29l86.52,4.34c-39.6,25.71-67.36,46.81-95.13,67.91l-492.86,374.55-72.95,46.4-69.19,27.66a46.52,46.52,0,0,1-25,2.79c-5.22-.89-8.39-2.32-9.58-3.89-3.16-4.16.28-11.16,11-25.87,32.16-44.15,36.26-56,29.38-151.55-12.49-154.77-14-225.91,5.29-321.59C935.13,780.8,707.78,896.63,485.2,1050.45ZM1679.81,850c-147.26-69.86-295-100-423-101.25-23.94,129.89-17.61,247.73,19,408.28Z"/><g id="Layer_2_copy_2" data-name="Layer 2 copy 2"><circle class="cls-2" cx="1351.01" cy="861.06" r="38.78"/></g></g></g></svg>